<svg id="Layer_1" enable-background="new 0 0 480 480" height="512" viewBox="0 0 480 480" width="512" xmlns="http://www.w3.org/2000/svg"><path d="m362.33 117.67c67.513 67.513 67.631 177.029 0 244.66-67.513 67.513-177.029 67.631-244.66 0-67.513-67.513-67.631-177.029 0-244.66 67.513-67.513 177.029-67.631 244.66 0z" fill="#d1e7ff"/><path d="m305.68 143.79c15.23 0 27.76 12.52 27.76 27.75s-12.53 27.75-27.76 27.75c-15.22 0-27.75-12.52-27.75-27.75s12.53-27.75 27.75-27.75z" fill="#b9dcff"/><circle cx="180.79" cy="314.01" fill="#b9dcff" r="20.35"/><path d="m301.98 253.88c25.89 0 47.19 21.3 47.19 47.18s-21.3 47.18-47.19 47.18c-25.88 0-47.18-21.3-47.18-47.18s21.3-47.18 47.18-47.18z" fill="#b9dcff"/><path d="m224.117 67.706c35.126-3.175 45.369 46.912 11.858 57.907-52.056 17.079-93.218 58.187-110.335 110.279-11.022 33.544-61.126 23.258-57.905-11.903 7.58-82.758 73.46-148.788 156.382-156.283z" fill="#e8f3ff"/><circle cx="171.69" cy="185.49" fill="#b9dcff" r="47.18"/><g fill="#a2d0ff"><path d="m195.657 144.933c6.278 3.745 3.602 13.361-3.708 13.34-24.878-.072-47.575 20.192-47.439 47.452.037 7.359-9.565 10.112-13.343 3.798-18.882-31.554 4.526-71.213 40.523-71.213 8.722 0 16.925 2.422 23.967 6.623z"/><path d="m308.291 157.439c-7.616 2.862-13.841 9.038-16.727 16.644-2.734 7.205-13.634 5.72-13.634-2.543 0-15.368 12.76-27.98 28.171-27.747 7.789.118 9.483 10.906 2.19 13.646z"/><path d="m325.958 260.502c6.279 3.744 3.603 13.362-3.707 13.34-24.889-.076-47.586 20.194-47.451 47.452.037 7.358-9.564 10.112-13.343 3.798-18.884-31.552 4.525-71.213 40.522-71.213 8.727.001 16.935 2.422 23.979 6.623z"/><path d="m182.219 305.556c-4.289 2.053-7.826 5.571-9.891 9.854-2.947 6.113-12.606 3.587-11.748-3.829 1.078-9.323 8.67-16.927 18.233-17.828 6.845-.644 9.607 8.835 3.406 11.803z"/></g><path d="m16 218v44c0 4.418-3.582 8-8 8s-8-3.582-8-8v-44c0-4.418 3.582-8 8-8s8 3.582 8 8zm456-8c-4.418 0-8 3.582-8 8v44c0 4.418 3.582 8 8 8s8-3.582 8-8v-44c0-4.418-3.582-8-8-8zm-210 254h-44c-4.418 0-8 3.582-8 8s3.582 8 8 8h44c4.418 0 8-3.582 8-8s-3.582-8-8-8zm-44-448h44c4.418 0 8-3.582 8-8s-3.582-8-8-8h-44c-4.418 0-8 3.582-8 8s3.582 8 8 8zm-46.31 130.311c4.418 0 8-3.582 8-8s-3.582-8-8-8c-30.428 0-55.182 24.754-55.182 55.182s24.754 55.182 55.182 55.182c47.014 0 72.232-55.209 42.159-90.787-2.853-3.375-7.899-3.799-11.274-.945-3.374 2.852-3.797 7.899-.945 11.273 21.318 25.22 3.48 64.459-29.939 64.459-21.605 0-39.182-17.577-39.182-39.182s17.576-39.182 39.181-39.182zm133.995 5.475c10.893 0 19.754 8.861 19.754 19.754 0 4.418 3.582 8 8 8s8-3.582 8-8c0-19.715-16.039-35.754-35.754-35.754s-35.754 16.039-35.754 35.754 16.039 35.754 35.754 35.754c4.418 0 8-3.582 8-8s-3.582-8-8-8c-10.893 0-19.754-8.861-19.754-19.754s8.861-19.754 19.754-19.754zm-124.893 133.872c15.634 0 28.353 12.719 28.353 28.353s-12.719 28.353-28.353 28.353-28.353-12.719-28.353-28.353 12.719-28.353 28.353-28.353zm0 16c-6.812 0-12.353 5.541-12.353 12.353s5.542 12.353 12.353 12.353 12.353-5.541 12.353-12.353-5.542-12.353-12.353-12.353zm66.01-.599c0 30.428 24.754 55.182 55.182 55.182s55.182-24.754 55.182-55.182c0-4.418-3.582-8-8-8s-8 3.582-8 8c0 21.604-17.577 39.182-39.182 39.182s-39.182-17.577-39.182-39.182c0-32.986 38.422-51.066 63.841-30.45 3.432 2.783 8.469 2.257 11.253-1.174 2.783-3.432 2.257-8.469-1.174-11.252-35.795-29.033-89.92-3.596-89.92 42.876zm194.198-69.059h-20.186c-1.919-43.884-19.531-83.76-47.359-114.141l14.331-14.332c3.124-3.124 3.124-8.189 0-11.313-3.124-3.123-8.189-3.124-11.314.001l-14.33 14.331c-30.381-27.828-70.258-45.441-114.142-47.359v-20.187c0-4.418-3.582-8-8-8s-8 3.582-8 8v20.199c-27.391 1.215-54.3 8.624-78.281 21.652-3.882 2.108-5.32 6.966-3.211 10.849 2.109 3.882 6.965 5.32 10.849 3.21 23.976-13.025 51.17-19.91 78.643-19.91 90.981 0 165 74.019 165 165 0 4.418 3.582 8 8 8h28c4.418 0 8-3.582 8-8s-3.582-8-8-8zm-374.948-134.835 31.113-31.113c3.125-3.125 3.125-8.19 0-11.314-3.124-3.123-8.189-3.123-11.313 0l-31.114 31.113c-3.125 3.125-3.125 8.19 0 11.314s8.189 3.123 11.314 0zm347.896 285.67-31.113 31.113c-5.056 5.056-1.406 13.657 5.657 13.657 2.047 0 4.095-.781 5.657-2.343l31.113-31.113c3.125-3.125 3.125-8.19 0-11.314-3.124-3.123-8.19-3.123-11.314 0zm-347.896 0c-3.124-3.122-8.189-3.123-11.313 0-3.125 3.124-3.125 8.189 0 11.314l31.113 31.113c3.125 3.124 8.189 3.123 11.313 0 3.125-3.124 3.125-8.189 0-11.314zm347.896-285.67c1.562 1.562 3.609 2.343 5.657 2.343 7.061 0 10.713-8.6 5.657-13.657l-31.113-31.113c-3.124-3.122-8.189-3.123-11.313 0-3.125 3.124-3.125 8.189 0 11.314zm-26.163 290.621c3.124-3.124 3.125-8.189 0-11.313l-14.236-14.236c17.375-18.922 30.496-41.318 38.573-66.096 1.37-4.201-.926-8.717-5.126-10.086-4.2-1.371-8.716.926-10.085 5.127-21.678 66.504-83.878 113.818-156.911 113.818-90.981 0-165-74.019-165-165 0-44.073 17.163-85.508 48.327-116.672 3.124-3.125 3.125-8.189 0-11.314-.009-.008-19.79-19.79-19.798-19.799-3.125-3.124-8.189-3.124-11.314-.001-3.124 3.124-3.125 8.189 0 11.313l14.271 14.272c-28.88 31.488-45.459 71.515-47.304 114.201h-20.182c-4.418 0-8 3.582-8 8s3.582 8 8 8h20.186c1.919 43.884 19.531 83.76 47.359 114.141l-14.331 14.332c-5.056 5.056-1.404 13.656 5.657 13.656 2.047 0 4.095-.781 5.657-2.344l14.33-14.331c30.38 27.828 70.257 45.441 114.141 47.359v20.187c0 4.418 3.582 8 8 8s8-3.582 8-8v-20.178c43.806-1.889 83.438-19.203 114.213-47.296l14.258 14.259c3.126 3.125 8.19 3.125 11.315.001z" fill="#2e58ff"/></svg>